<svg width="10" height="6" viewBox="0 0 10 6" fill="none" xmlns="http://www.w3.org/2000/svg">
<path d="M4.98897 5.92839C4.86177 5.92854 4.73601 5.90157 4.62006 5.84927C4.50412 5.79696 4.40067 5.72053 4.31661 5.62507L0.501377 1.28836C0.380791 1.14465 0.321216 0.959467 0.33539 0.772406C0.349565 0.585345 0.436363 0.411253 0.577227 0.287357C0.71809 0.16346 0.901836 0.0995928 1.08918 0.109411C1.27652 0.11923 1.45258 0.201955 1.57972 0.339897L4.91586 4.13218C4.92498 4.14259 4.93623 4.15093 4.94883 4.15665C4.96144 4.16236 4.97512 4.16532 4.98897 4.16532C5.00281 4.16532 5.01649 4.16236 5.0291 4.15665C5.04171 4.15093 5.05295 4.14259 5.06207 4.13218L8.39821 0.339897C8.45975 0.266566 8.53532 0.206274 8.62049 0.162567C8.70565 0.11886 8.7987 0.0926182 8.89415 0.0853852C8.98961 0.0781523 9.08554 0.0900737 9.17632 0.120449C9.26711 0.150824 9.3509 0.19904 9.42278 0.262262C9.49466 0.325484 9.55318 0.402438 9.59489 0.4886C9.6366 0.574761 9.66067 0.668392 9.66568 0.763989C9.67069 0.859585 9.65654 0.955219 9.62406 1.04527C9.59159 1.13532 9.54143 1.21797 9.47656 1.28836L5.66249 5.62351C5.57829 5.71921 5.47468 5.79589 5.35855 5.84845C5.24242 5.90102 5.11644 5.92827 4.98897 5.92839Z" fill="#6F7B8D"/>
</svg>
