<svg width="10" height="6" viewBox="0 0 10 6" fill="none" xmlns="http://www.w3.org/2000/svg">
<path d="M5.00022 0.0833327C5.12712 0.0831757 5.25259 0.110086 5.36826 0.162268C5.48393 0.21445 5.58714 0.290703 5.671 0.385938L9.47723 4.71164C9.54195 4.78186 9.59198 4.86431 9.62439 4.95415C9.65679 5.04399 9.67091 5.1394 9.66591 5.23477C9.66091 5.33014 9.6369 5.42355 9.59528 5.50951C9.55367 5.59547 9.49529 5.67224 9.42358 5.73531C9.35187 5.79839 9.26827 5.84649 9.1777 5.87679C9.08714 5.90709 8.99143 5.91899 8.8962 5.91177C8.80097 5.90456 8.70814 5.87838 8.62317 5.83477C8.53821 5.79117 8.46282 5.73102 8.40143 5.65786L5.07316 1.8753C5.06406 1.86491 5.05284 1.85659 5.04026 1.85089C5.02768 1.84519 5.01403 1.84224 5.00022 1.84224C4.98641 1.84224 4.97276 1.84519 4.96019 1.85089C4.94761 1.85659 4.93639 1.86491 4.92729 1.8753L1.59902 5.65864C1.53763 5.73179 1.46224 5.79194 1.37727 5.83555C1.29231 5.87915 1.19948 5.90533 1.10425 5.91255C1.00902 5.91976 0.913311 5.90787 0.822744 5.87757C0.732177 5.84726 0.648582 5.79916 0.576871 5.73609C0.50516 5.67301 0.446782 5.59624 0.405166 5.51028C0.36355 5.42433 0.339538 5.33092 0.334539 5.23554C0.329541 5.14017 0.343658 5.04477 0.37606 4.95493C0.408462 4.86509 0.458496 4.78264 0.523221 4.71241L4.32829 0.38749C4.41229 0.292019 4.51566 0.215521 4.63151 0.16308C4.74737 0.110638 4.87305 0.0834535 5.00022 0.0833327Z" fill="#6F7B8D"/>
</svg>
